<?xml version="1.0" encoding="utf-8"?>
<!-- Generator: Adobe Illustrator 16.0.0, SVG Export Plug-In . SVG Version: 6.00 Build 0)  -->
<!DOCTYPE svg PUBLIC "-//W3C//DTD SVG 1.1//EN" "http://www.w3.org/Graphics/SVG/1.1/DTD/svg11.dtd">
<svg version="1.1" id="calque" xmlns="http://www.w3.org/2000/svg" xmlns:xlink="http://www.w3.org/1999/xlink" x="0px" y="0px"
	 width="907.09px" height="680.31px" viewBox="0 0 907.09 680.31" enable-background="new 0 0 907.09 680.31" xml:space="preserve">
<g id="Calque_3">
	<g id="XMLID_4_">
		<g>
			<path fill="#F39200" d="M839.57,340.15c0,49.49-9.011,96.291-25.07,137.93c-24.04,0-43.5,19.2-43.5,42.92
				c-11.05,0-20-32.61-20-72.92c0-5.771-36.19-10.44-80.92-10.44c-8.34,0-15.08-23.51-15.08-52.56c-32.97,0-61.36,12.76-72.72,26.58
				c10.899-30.33,16.41-79.8,16.41-149.16C546.1,187.03,459.16,149.18,371.57,154.41l-0.03-0.48c0-63.44,57.72-140.82,129.05-140.82
				C687.96,13.11,839.57,159.38,839.57,340.15z"/>
			<path fill="#FFFFFF" d="M771,521c0-23.72,19.46-42.92,43.5-42.92c-40.41,104.76-125.44,176.85-223.92,176.85
				c-65.68,0-122.8-34.5-152.41-85.489c-13.76-23.671-21.58-50.9-21.58-79.891c0-57.74,8.71-104.47,19.47-104.47
				c0,34.83,48.99,63,109.53,63c12.73,0,23.2-7.92,31.38-23.98c1.9-3.71,3.66-7.85,5.311-12.439
				c11.359-13.82,39.75-26.58,72.72-26.58c0,29.05,6.74,52.56,15.08,52.56c44.729,0,80.92,4.67,80.92,10.44
				C751,488.39,759.95,521,771,521z"/>
			<path fill="#E28900" d="M339.86,424.1c1.99-8.25,3.04-16.819,3.04-25.609c0-41.46-4.93-68.67-17.34-86.38
				c27.9-4.89,56.52-21.05,37.3-22.65c-15.95-1.32,33.21-20.48,38.55-48.72c5.35-28.25,10.62-76.74-5.33-78.07
				c-15.82-1.31-104.11,94.87-110.76,123.99c-18.15-4.66-41.34-6.05-70.58-6.05c-23.81,0-43.57,0.92-59.84,3.71
				c19.1-31,44.87-58.79,76.85-81.08c43.03-29.98,91.53-45.96,139.82-48.83c87.59-5.23,174.53,32.62,227.121,108.09
				c0,69.36-5.511,118.83-16.41,149.16c-3.431,4.16-5.311,8.41-5.311,12.439c-8.18,16.061-18.649,23.98-31.38,23.98
				c-60.54,0-109.53-28.17-109.53-63c-10.76,0-19.47,46.729-19.47,104.47c0,28.99,7.82,56.22,21.58,79.891l-0.01,0.01
				c-89.77,0-162.4-10.71-162.4-23.95l-1.58-0.61c7.27-18.909,14.2-37.75,24.77-52.729c3.55-5.05,7.21-9.92,10.89-14.65
				c4.31-5.54,8.66-10.88,12.94-16.09l0.27,0.12C330.85,450.22,336.62,437.6,339.86,424.1z"/>
			<path fill="#FFFFFF" d="M582.28,411.66c-1.65,4.59-3.41,8.729-5.311,12.439C576.97,420.07,578.85,415.82,582.28,411.66z"/>
			<path fill="#634E42" d="M396.08,162.67c15.95,1.33,10.68,49.82,5.33,78.07c-5.34,28.24-54.5,47.4-38.55,48.72
				c19.22,1.6-9.4,17.76-37.3,22.65c-1.86-2.66-3.89-5.1-6.1-7.34c18.12-2.91,37.3-13.6,24.8-14.64
				c-10.19-0.84,21.23-13.09,24.65-31.14c3.41-18.05,6.78-49.04-3.41-49.89c-10.2-0.85-67.47,61.64-70.89,79.69l-0.21,0.62
				c-2.88-1.03-5.9-1.94-9.08-2.75C291.97,257.54,380.26,161.36,396.08,162.67z"/>
			<path fill="#CA9E67" d="M365.5,209.1c10.19,0.85,6.82,31.84,3.41,49.89c-3.42,18.05-34.84,30.3-24.65,31.14
				c12.5,1.04-6.68,11.73-24.8,14.64c-6.66-6.78-14.94-11.75-25.06-15.36l0.21-0.62C298.03,270.74,355.3,208.25,365.5,209.1z"/>
			<path fill="#F39200" d="M212.17,586.03c-0.03,0-0.06,0-0.1,0c-4.96,0.12-9.59,0.819-13.63,1.979
				c-1.49-85.529-48.31-154.06-105.95-154.06c-3.84-11.19-5.91-23.101-5.91-35.46c0-41.471,4.74-68.71,17.07-86.43
				c1.63-2.35,3.39-4.52,5.29-6.54c6.43-6.83,14.45-11.89,24.31-15.59c2.7-1.01,5.53-1.92,8.51-2.74c4.1-1.13,8.48-2.08,13.14-2.87
				c16.27-2.79,36.03-3.71,59.84-3.71c29.24,0,52.43,1.39,70.58,6.05c3.18,0.81,6.2,1.72,9.08,2.75
				c10.12,3.61,18.4,8.58,25.06,15.36c2.21,2.24,4.24,4.68,6.1,7.34c12.41,17.71,17.34,44.92,17.34,86.38
				c0,8.79-1.05,17.359-3.04,25.609c-60.3,0.011-109.28,75.98-110.91,163.58c-3.14-0.62-6.58-1.08-10.24-1.359
				C216.6,586.16,214.41,586.06,212.17,586.03z M263.82,397.05c0-14.939-1.77-27.05-3.96-27.05c-2.18,0-3.96,12.11-3.96,27.05
				c0,14.94,1.78,27.05,3.96,27.05C262.05,424.1,263.82,411.99,263.82,397.05z"/>
			<path fill="#FFFFFF" d="M339.86,424.1c-3.24,13.5-9.01,26.12-16.81,37.44l-0.27-0.12c-4.28,5.21-8.63,10.55-12.94,16.09
				c-3.68,4.73-7.34,9.601-10.89,14.65c-10.57,14.979-17.5,33.82-24.77,52.729h-0.01c-7.32,19.061-14.99,38.181-27.09,53.511
				l-0.01-0.011c0-1.38-0.66-2.71-1.88-3.939c-2.83-2.88-8.67-5.28-16.24-6.771C230.58,500.08,279.56,424.11,339.86,424.1z"/>
			<path d="M259.86,370c2.19,0,3.96,12.11,3.96,27.05c0,14.94-1.77,27.05-3.96,27.05c-2.18,0-3.96-12.109-3.96-27.05
				C255.9,382.11,257.68,370,259.86,370z"/>
			<path d="M247.07,598.39l0.01,0.011c-8.29,10.5-18.65,19.22-32.39,24.909c-13.04-5.159-23.08-13-31.19-22.489
				c0-1.46,0.43-2.87,1.23-4.21c2.19-3.66,7.16-6.73,13.71-8.601c0.02,1.4,0.03,2.8,0.03,4.2h30.43c0-1.51,0.01-3.02,0.05-4.53
				c7.57,1.49,13.41,3.891,16.24,6.771C246.41,595.68,247.07,597.01,247.07,598.39z"/>
			<path d="M228.95,587.68c-0.04,1.511-0.05,3.021-0.05,4.53h-30.43c0-1.4-0.01-2.8-0.03-4.2c4.04-1.16,8.67-1.859,13.63-1.979
				c0.04,0,0.07,0,0.1,0c2.24,0.029,4.43,0.13,6.54,0.29C222.37,586.6,225.81,587.06,228.95,587.68z"/>
			<path fill="#FFFFFF" d="M112.41,469.46c-8.69-10.58-15.49-22.56-19.92-35.51c57.64,0,104.46,68.53,105.95,154.06
				c-6.55,1.87-11.52,4.94-13.71,8.601c-0.8,1.34-1.23,2.75-1.23,4.21c-0.43-0.49-0.85-1-1.26-1.5
				c-25.05-30.551-31.45-77.101-53-107.65c-2.81-3.97-5.68-7.85-8.57-11.63c-2.75-3.59-5.53-7.11-8.3-10.55L112.41,469.46z"/>
			<path fill="#634E42" d="M141.68,286.9l0.08,0.29c-2.98,0.82-5.81,1.73-8.51,2.74l-0.28-0.75c-3.41-18.05-60.68-80.54-70.88-79.69
				c-10.19,0.84-6.82,31.84-3.41,49.89c3.42,18.05,34.84,30.29,24.64,31.14c-12.62,1.05,7.05,11.93,25.32,14.72l0.3,0.28
				c-1.9,2.02-3.66,4.19-5.29,6.54l-0.05-0.03c-28.58-4.37-59.35-21.39-39.61-23.03c15.95-1.33-33.21-20.49-38.55-48.73
				c-5.35-28.24-10.62-76.74,5.33-78.06C46.73,160.88,136.33,258.65,141.68,286.9z"/>
			<path fill="#CA9E67" d="M132.97,289.18l0.28,0.75c-9.86,3.7-17.88,8.76-24.31,15.59l-0.3-0.28
				c-18.27-2.79-37.94-13.67-25.32-14.72c10.2-0.85-21.22-13.09-24.64-31.14c-3.41-18.05-6.78-49.05,3.41-49.89
				C72.29,208.64,129.56,271.13,132.97,289.18z"/>
		</g>
		<g>
			<path fill="none" stroke="#000000" stroke-width="3" stroke-miterlimit="10" d="M655,385.08c0,29.05,6.74,52.56,15.08,52.56"/>
			<path fill="none" stroke="#000000" stroke-width="3" stroke-miterlimit="10" d="M751,448.08c0-5.771-36.19-10.44-80.92-10.44"/>
			<path fill="none" stroke="#000000" stroke-width="3" stroke-miterlimit="10" d="M751,448.08c0,40.31,8.95,72.92,20,72.92"/>
			<path fill="none" stroke="#000000" stroke-width="3" stroke-miterlimit="10" d="M771,521c0-23.72,19.46-42.92,43.5-42.92"/>
			<path fill="none" stroke="#000000" stroke-width="3" stroke-miterlimit="10" d="M839.57,340.15
				c0-180.77-151.61-327.04-338.98-327.04"/>
			<path fill="none" stroke="#000000" stroke-width="3" stroke-miterlimit="10" d="M839.57,340.15
				c0,49.49-9.011,96.291-25.07,137.93c-40.41,104.76-125.44,176.85-223.92,176.85"/>
			<path fill="none" stroke="#000000" stroke-width="3" stroke-miterlimit="10" d="M154.9,284.32c19.1-31,44.87-58.79,76.85-81.08
				c43.03-29.98,91.53-45.96,139.82-48.83c87.59-5.23,174.53,32.62,227.121,108.09"/>
			<path fill="none" stroke="#000000" stroke-width="3" stroke-miterlimit="10" d="M576.97,424.1c0-4.029,1.88-8.279,5.311-12.439
				c11.359-13.82,39.75-26.58,72.72-26.58"/>
			<path fill="none" stroke="#000000" stroke-width="3" stroke-miterlimit="10" d="M275.76,545.5c0,13.24,72.63,23.95,162.4,23.95"
				/>
			<path fill="none" stroke="#000000" stroke-width="3" stroke-miterlimit="10" d="M371.54,153.93
				c0-63.44,57.72-140.82,129.05-140.82"/>
			<path fill="none" stroke="#000000" stroke-width="3" stroke-miterlimit="10" d="M416.59,489.55c0,28.99,7.82,56.22,21.58,79.891
				c29.61,50.989,86.73,85.489,152.41,85.489"/>
			<path fill="none" stroke="#000000" stroke-width="3" stroke-miterlimit="10" d="M416.59,489.55c0-57.74,8.71-104.47,19.47-104.47
				"/>
			<path fill="none" stroke="#000000" stroke-width="3" stroke-miterlimit="10" d="M436.06,385.08c0,34.83,48.99,63,109.53,63"/>
			<path fill="none" stroke="#000000" stroke-width="3" stroke-miterlimit="10" d="M598.69,262.5c0,69.36-5.511,118.83-16.41,149.16
				c-1.65,4.59-3.41,8.729-5.311,12.439c-8.18,16.061-18.649,23.98-31.38,23.98"/>
			<path fill="none" stroke="#000000" stroke-width="3" stroke-linecap="round" stroke-linejoin="round" d="M325.56,312.11
				c27.9-4.89,56.52-21.05,37.3-22.65c-15.95-1.32,33.21-20.48,38.55-48.72c5.35-28.25,10.62-76.74-5.33-78.07
				c-15.82-1.31-104.11,94.87-110.76,123.99"/>
			<path fill="none" stroke="#000000" stroke-width="3" stroke-linecap="round" stroke-linejoin="round" d="M103.6,312.03
				c-28.58-4.37-59.35-21.39-39.61-23.03c15.95-1.33-33.21-20.49-38.55-48.73c-5.35-28.24-10.62-76.74,5.33-78.06
				c15.96-1.33,105.56,96.44,110.91,124.69"/>
			<path fill="none" stroke="#000000" stroke-width="3" stroke-linecap="round" stroke-linejoin="round" d="M319.46,304.77
				c18.12-2.91,37.3-13.6,24.8-14.64c-10.19-0.84,21.23-13.09,24.65-31.14c3.41-18.05,6.78-49.04-3.41-49.89
				c-10.2-0.85-67.47,61.64-70.89,79.69"/>
			<path fill="none" stroke="#000000" stroke-width="3" stroke-miterlimit="10" d="M198.44,588.01
				c-1.49-85.529-48.31-154.06-105.95-154.06"/>
			<path fill="none" stroke="#000000" stroke-width="3" stroke-miterlimit="10" d="M228.95,587.68
				c1.63-87.6,50.61-163.569,110.91-163.58h0.01"/>
			<path fill="none" stroke="#000000" stroke-width="3" stroke-miterlimit="10" d="M114.49,471.92c-0.71-0.81-1.4-1.63-2.08-2.46
				c-8.69-10.58-15.49-22.56-19.92-35.51c-3.84-11.19-5.91-23.101-5.91-35.46c0-41.471,4.74-68.71,17.07-86.43
				c1.63-2.35,3.39-4.52,5.29-6.54c6.43-6.83,14.45-11.89,24.31-15.59c2.7-1.01,5.53-1.92,8.51-2.74c4.1-1.13,8.48-2.08,13.14-2.87
				c16.27-2.79,36.03-3.71,59.84-3.71c29.24,0,52.43,1.39,70.58,6.05c3.18,0.81,6.2,1.72,9.08,2.75
				c10.12,3.61,18.4,8.58,25.06,15.36c2.21,2.24,4.24,4.68,6.1,7.34c12.41,17.71,17.34,44.92,17.34,86.38
				c0,8.79-1.05,17.359-3.04,25.609c-3.24,13.5-9.01,26.12-16.81,37.44"/>
			<path fill="none" stroke="#000000" stroke-width="3" stroke-miterlimit="10" d="M110.9,467.66c0.49,0.609,0.98,1.22,1.47,1.83
				c2.77,3.439,5.55,6.96,8.3,10.55c2.89,3.78,5.76,7.66,8.57,11.63c21.55,30.55,27.95,77.1,53,107.65c0.41,0.5,0.83,1.01,1.26,1.5
				c8.11,9.489,18.15,17.33,31.19,22.489c0.02,0.011,0.04,0.021,0.06,0.03"/>
			<path fill="none" stroke="#000000" stroke-width="3" stroke-miterlimit="10" d="M322.78,461.42
				c-4.28,5.21-8.63,10.55-12.94,16.09c-3.68,4.73-7.34,9.601-10.89,14.65c-10.57,14.979-17.5,33.82-24.77,52.729h-0.01
				c-7.32,19.061-14.99,38.181-27.09,53.511c-8.29,10.5-18.65,19.22-32.39,24.909c-0.41,0.19-0.83,0.351-1.25,0.521"/>
			<path fill="none" stroke="#000000" stroke-width="3" stroke-miterlimit="10" d="M212.17,586.03c0.42-0.011,0.85-0.011,1.27-0.011
				"/>
			<path fill="none" stroke="#000000" stroke-width="3" stroke-miterlimit="10" d="M183.5,600.83v-0.01c0-1.46,0.43-2.87,1.23-4.21
				c2.19-3.66,7.16-6.73,13.71-8.601c4.04-1.16,8.67-1.859,13.63-1.979"/>
			<path fill="none" stroke="#000000" stroke-width="3" stroke-miterlimit="10" d="M247.07,598.39c0-1.38-0.66-2.71-1.88-3.939
				c-2.83-2.88-8.67-5.28-16.24-6.771c-3.14-0.62-6.58-1.08-10.24-1.359c-2.11-0.16-4.3-0.261-6.54-0.29c-0.03,0-0.06,0-0.1,0
				c-0.44-0.011-0.89-0.011-1.34-0.011"/>
			<path fill="none" stroke="#000000" stroke-width="3" stroke-linecap="round" stroke-linejoin="round" d="M108.64,305.24
				c-18.27-2.79-37.94-13.67-25.32-14.72c10.2-0.85-21.22-13.09-24.64-31.14c-3.41-18.05-6.78-49.05,3.41-49.89
				c10.2-0.85,67.47,61.64,70.88,79.69"/>
			<path fill="none" stroke="#000000" stroke-width="3" stroke-miterlimit="10" d="M255.9,397.05c0,14.94,1.78,27.05,3.96,27.05
				c2.19,0,3.96-12.109,3.96-27.05c0-14.939-1.77-27.05-3.96-27.05C257.68,370,255.9,382.11,255.9,397.05z"/>
		</g>
	</g>
	<g id="oeilg">
		<g>
			<path d="M158.86,370c2.19,0,3.96,12.11,3.96,27.05c0,14.94-1.77,27.05-3.96,27.05c-2.18,0-3.96-12.109-3.96-27.05
				C154.9,382.11,156.68,370,158.86,370z"/>
		</g>
		<g>
			<path fill="none" stroke="#000000" stroke-width="3" stroke-miterlimit="10" d="M154.9,397.05c0,14.94,1.78,27.05,3.96,27.05
				c2.19,0,3.96-12.109,3.96-27.05c0-14.939-1.77-27.05-3.96-27.05C156.68,370,154.9,382.11,154.9,397.05z"/>
		</g>
	</g>
</g>
</svg>
